<?xml version="1.0" encoding="UTF-8" standalone="no"?>
<!-- Created with Inkscape (http://www.inkscape.org/) -->

<svg
   width="32"
   height="32"
   viewBox="0 0 8.4666665 8.4666666"
   version="1.1"
   id="svg1"
   inkscape:version="1.4.2 (f4327f4, 2025-05-13)"
   sodipodi:docname="favicon.svg"
   inkscape:export-filename="Documents\proyectos\tjal-web\public\favicon.png"
   inkscape:export-xdpi="96"
   inkscape:export-ydpi="96"
   xmlns:inkscape="http://www.inkscape.org/namespaces/inkscape"
   xmlns:sodipodi="http://sodipodi.sourceforge.net/DTD/sodipodi-0.dtd"
   xmlns="http://www.w3.org/2000/svg"
   xmlns:svg="http://www.w3.org/2000/svg">
  <sodipodi:namedview
     id="namedview1"
     pagecolor="#ffffff"
     bordercolor="#000000"
     borderopacity="0.25"
     inkscape:showpageshadow="2"
     inkscape:pageopacity="0.0"
     inkscape:pagecheckerboard="0"
     inkscape:deskcolor="#d1d1d1"
     inkscape:document-units="mm"
     inkscape:zoom="8.1336326"
     inkscape:cx="23.23685"
     inkscape:cy="27.970282"
     inkscape:window-width="1920"
     inkscape:window-height="1009"
     inkscape:window-x="1912"
     inkscape:window-y="194"
     inkscape:window-maximized="1"
     inkscape:current-layer="svg1" />
  <defs
     id="defs1" />
  <path
     id="rect4"
     style="fill:#800020;fill-opacity:1;stroke:#000000;stroke-width:0;stroke-linecap:round;stroke-dasharray:none;stroke-dashoffset:2000;paint-order:stroke fill markers"
     sodipodi:type="inkscape:offset"
     inkscape:radius="0"
     inkscape:original="M 4.2324219 1.4394531 C 3.2602516 1.4394562 2.3194189 2.0370706 1.6542969 3.0136719 C 0.9891748 3.9902732 0.5864114 5.3422262 0.52929688 6.7324219 A 0.28408045 0.28408045 0 0 0 0.8125 7.0273438 L 0.93359375 7.0273438 A 0.28408045 0.28408045 0 0 0 1.2167969 6.7558594 C 1.2376049 6.2526519 1.2014774 6.7807446 1.2519531 6.2832031 C 1.3024288 5.7856617 1.2328916 6.3035979 1.3125 5.8164062 C 1.3921084 5.3292146 1.2924995 5.8355322 1.4003906 5.3632812 C 1.5082817 4.8910303 1.3806164 5.3786379 1.515625 4.9257812 C 1.6506336 4.4729246 1.4956039 4.9389579 1.65625 4.5097656 C 1.8168961 4.0805734 1.6338691 4.5167265 1.8183594 4.1152344 C 2.0028496 3.7137423 1.7976746 4.1220013 2.0039062 3.7519531 C 2.2101379 3.381905 1.9834122 3.7531886 2.2089844 3.4179688 C 2.4345566 3.0827489 2.1874479 3.416587 2.4296875 3.1191406 C 2.5385427 2.9854771 2.5373193 2.9988342 2.5351562 3 A 0.28408045 0.28408045 0 0 0 2.8125 3.2773438 L 3.2539062 3.2773438 A 0.28408045 0.28408045 0 0 0 3.078125 3.453125 L 3.078125 5.0898438 C 3.0782636 5.1670361 3.0932617 5.0940959 3.0605469 5.171875 C 3.0270866 5.2514265 3.0729805 5.1814007 3.0117188 5.2421875 C 2.950457 5.3029743 3.0212158 5.2562223 2.9414062 5.2890625 C 2.8615967 5.3219027 2.9437239 5.3067075 2.8574219 5.3066406 C 2.7711199 5.3067076 2.853247 5.3219027 2.7734375 5.2890625 C 2.693628 5.2562223 2.7643867 5.3029743 2.703125 5.2421875 C 2.6418633 5.1814007 2.6877572 5.2514265 2.6542969 5.171875 C 2.6208366 5.0923235 2.6373234 5.1741905 2.6367188 5.0878906 A 0.28408045 0.28408045 0 0 0 2.3535156 4.8066406 L 2.234375 4.8066406 A 0.28408045 0.28408045 0 0 0 1.9511719 5.0917969 C 1.9546829 5.5645286 2.3846774 5.9916497 2.8574219 5.9921875 C 3.3311136 5.9931318 3.7621076 5.5654765 3.765625 5.0917969 A 0.28408045 0.28408045 0 0 0 3.765625 5.0898438 L 3.765625 3.453125 A 0.28408045 0.28408045 0 0 0 3.5898438 3.2773438 L 3.8828125 3.2773438 L 3.8828125 5.7011719 A 0.28408045 0.28408045 0 0 0 4.1660156 5.984375 L 4.3007812 5.984375 A 0.28408045 0.28408045 0 0 0 4.5839844 5.7011719 L 4.5839844 3.2773438 L 4.8769531 3.2773438 A 0.28408045 0.28408045 0 0 0 4.7011719 3.453125 L 4.7011719 5.7070312 A 0.28408045 0.28408045 0 0 0 4.984375 5.9902344 L 5.1054688 5.9902344 L 6.2324219 5.9902344 A 0.28408045 0.28408045 0 0 0 6.515625 5.7070312 L 6.515625 5.5878906 A 0.28408045 0.28408045 0 0 0 6.2324219 5.3046875 L 5.3886719 5.3046875 L 5.3886719 3.453125 A 0.28408045 0.28408045 0 0 0 5.2128906 3.2773438 L 5.6542969 3.2773438 A 0.28408045 0.28408045 0 0 0 5.9316406 3 C 5.9296092 2.9990325 5.9287943 2.9842785 6.0371094 3.1171875 C 6.2793728 3.4144591 6.0322115 3.0809515 6.2578125 3.4160156 C 6.4834135 3.7510798 6.2566279 3.3800888 6.4628906 3.75 C 6.6691533 4.1199112 6.4619632 3.7138617 6.6464844 4.1152344 C 6.8310056 4.5166071 6.649872 4.0787238 6.8105469 4.5078125 C 6.9712218 4.9369012 6.8161385 4.4730144 6.9511719 4.9257812 C 7.0862052 5.3785481 6.9565427 4.8911089 7.0644531 5.3632812 C 7.1723636 5.8354536 7.0746757 5.3292848 7.1542969 5.8164062 C 7.233918 6.3035277 7.1643628 5.7857263 7.2148438 6.2832031 C 7.2653247 6.7806799 7.2291945 6.2527141 7.25 6.7558594 A 0.28408045 0.28408045 0 0 0 7.5332031 7.0273438 L 7.6523438 7.0273438 A 0.28408045 0.28408045 0 0 0 7.9355469 6.7324219 C 7.8784324 5.3422262 7.4756689 3.9902732 6.8105469 3.0136719 C 6.1454248 2.0370706 5.2045921 1.4394562 4.2324219 1.4394531 z M 4.2324219 2.125 C 4.5167004 2.1248471 4.2180474 2.1041314 4.5019531 2.1464844 C 4.7858588 2.1888373 4.4869761 2.1198656 4.7695312 2.2050781 C 5.0520864 2.2902907 4.7554956 2.1781237 5.0351562 2.3066406 C 5.3148169 2.4351575 5.0223015 2.2772275 5.296875 2.4492188 C 5.4873137 2.5685084 5.4518011 2.5533634 5.4746094 2.5761719 L 2.9902344 2.5761719 C 3.0130021 2.553374 2.9775273 2.5686649 3.1679688 2.4492188 C 3.4425462 2.277002 3.1500122 2.4373482 3.4296875 2.3085938 C 3.7093628 2.1798393 3.4127335 2.292491 3.6953125 2.2070312 C 3.9778915 2.1215715 3.6809076 2.1890935 3.9648438 2.1464844 C 4.2487799 2.1038753 3.9481082 2.1251135 4.2324219 2.125 z "
     d="m 4.2324219,1.4394531 c -0.9721703,3.1e-6 -1.913003,0.5976175 -2.578125,1.5742188 -0.6651221,0.9766013 -1.0678855,2.3285543 -1.12500002,3.71875 A 0.28408045,0.28408045 0 0 0 0.8125,7.0273438 H 0.93359375 A 0.28408045,0.28408045 0 0 0 1.2167969,6.7558594 c 0.020808,-0.5032075 -0.01532,0.024885 0.035156,-0.4726563 0.050476,-0.4975414 -0.019061,0.020395 0.060547,-0.4667969 0.079608,-0.4871916 -0.020001,0.019126 0.087891,-0.453125 0.1078911,-0.4722509 -0.019774,0.015357 0.1152344,-0.4375 C 1.6506336,4.4729246 1.4956039,4.9389579 1.65625,4.5097656 1.8168961,4.0805734 1.6338691,4.5167265 1.8183594,4.1152344 2.0028496,3.7137423 1.7976746,4.1220013 2.0039062,3.7519531 2.2101379,3.381905 1.9834122,3.7531886 2.2089844,3.4179688 2.4345566,3.0827489 2.1874479,3.416587 2.4296875,3.1191406 2.5385427,2.9854771 2.5373193,2.9988342 2.5351562,3 A 0.28408045,0.28408045 0 0 0 2.8125,3.2773438 H 3.2539062 A 0.28408045,0.28408045 0 0 0 3.078125,3.453125 v 1.6367188 c 1.386e-4,0.077192 0.015137,0.00425 -0.017578,0.082031 -0.03346,0.079551 0.012434,0.00953 -0.048828,0.070312 -0.061262,0.060787 0.0095,0.014035 -0.070313,0.046875 -0.079809,0.03284 0.00232,0.017645 -0.083984,0.017578 -0.086302,6.7e-5 -0.00417,0.015262 -0.083984,-0.017578 -0.07981,-0.03284 -0.00905,0.013912 -0.070312,-0.046875 -0.061262,-0.060787 -0.015368,0.00924 -0.048828,-0.070312 -0.03346,-0.079551 -0.016973,0.00232 -0.017578,-0.083984 A 0.28408045,0.28408045 0 0 0 2.3535156,4.8066406 H 2.234375 A 0.28408045,0.28408045 0 0 0 1.9511719,5.0917969 c 0.00351,0.4727317 0.4335055,0.8998528 0.90625,0.9003906 0.4736917,9.443e-4 0.9046857,-0.426711 0.9082031,-0.9003906 a 0.28408045,0.28408045 0 0 0 0,-0.00195 V 3.453125 A 0.28408045,0.28408045 0 0 0 3.5898438,3.2773438 H 3.8828125 V 5.7011719 A 0.28408045,0.28408045 0 0 0 4.1660156,5.984375 H 4.3007812 A 0.28408045,0.28408045 0 0 0 4.5839844,5.7011719 V 3.2773438 H 4.8769531 A 0.28408045,0.28408045 0 0 0 4.7011719,3.453125 V 5.7070312 A 0.28408045,0.28408045 0 0 0 4.984375,5.9902344 H 5.1054688 6.2324219 A 0.28408045,0.28408045 0 0 0 6.515625,5.7070312 V 5.5878906 A 0.28408045,0.28408045 0 0 0 6.2324219,5.3046875 h -0.84375 V 3.453125 A 0.28408045,0.28408045 0 0 0 5.2128906,3.2773438 H 5.6542969 A 0.28408045,0.28408045 0 0 0 5.9316406,3 c -0.00203,-9.675e-4 -0.00285,-0.015722 0.1054688,0.1171875 0.2422634,0.2972716 -0.0049,-0.036236 0.2207031,0.2988281 0.225601,0.3350642 -0.00118,-0.035927 0.2050781,0.3339844 0.2062627,0.3699112 -9.274e-4,-0.036138 0.1835938,0.3652344 0.1845212,0.4013727 0.00339,-0.036511 0.1640625,0.3925781 0.1606749,0.4290887 0.00559,-0.034798 0.140625,0.4179687 0.1350333,0.4527669 0.00537,-0.034672 0.1132812,0.4375 0.1079105,0.4721724 0.010223,-0.033996 0.089844,0.453125 0.079621,0.4871215 0.010066,-0.03068 0.060547,0.4667969 C 7.2653247,6.7806799 7.2291945,6.2527141 7.25,6.7558594 A 0.28408045,0.28408045 0 0 0 7.5332031,7.0273438 H 7.6523438 A 0.28408045,0.28408045 0 0 0 7.9355469,6.7324219 C 7.8784324,5.3422262 7.4756689,3.9902732 6.8105469,3.0136719 6.1454248,2.0370706 5.2045921,1.4394562 4.2324219,1.4394531 Z m 0,0.6855469 c 0.2842785,-1.529e-4 -0.014375,-0.020869 0.2695312,0.021484 0.2839057,0.042353 -0.014977,-0.026619 0.2675781,0.058594 0.2825552,0.085213 -0.014036,-0.026954 0.265625,0.1015625 0.2796607,0.1285169 -0.012855,-0.029413 0.2617188,0.1425782 0.1904387,0.1192896 0.1549261,0.1041446 0.1777344,0.1269531 H 2.9902344 C 3.0130021,2.553374 2.9775273,2.5686649 3.1679688,2.4492188 3.4425462,2.277002 3.1500122,2.4373482 3.4296875,2.3085938 3.7093628,2.1798393 3.4127335,2.292491 3.6953125,2.2070312 3.9778915,2.1215715 3.6809076,2.1890935 3.9648438,2.1464844 4.2487799,2.1038753 3.9481082,2.1251135 4.2324219,2.125 Z"
     transform="matrix(1.0960278,0,0,1.0960278,-0.40551872,-0.40658906)" />
  <g
     inkscape:label="Capa 1"
     inkscape:groupmode="layer"
     id="layer1" />
</svg>
